<svg xmlns="http://www.w3.org/2000/svg" viewBox="0 0 64 64" width="64" height="64">
  <!-- 与 Android 自适应启动图标保持一致的纯黑白极简风格：深灰方块底 + 白色挂锁 + 深色转换箭头 -->
  <rect x="4" y="4" width="56" height="56" rx="14" fill="#1C1B1F"/>
  <g transform="translate(32,32) scale(0.593) translate(-54,-54)">
    <!-- 挂锁锁梁（白色描边） -->
    <path stroke="#FFFFFF" stroke-width="6" stroke-linecap="round" stroke-linejoin="round" fill="none" d="M45,52 L45,45 A9,9 0 0 1 63,45 L63,52"/>
    <!-- 锁体（白色圆角矩形） -->
    <path fill="#FFFFFF" d="M42,50 L66,50 A8,8 0 0 1 74,58 L74,76 A8,8 0 0 1 66,84 L42,84 A8,8 0 0 1 34,76 L34,58 A8,8 0 0 1 42,50 Z"/>
    <!-- 转换标记 ⇄（深色） -->
    <path stroke="#16171E" stroke-width="3.2" stroke-linecap="round" stroke-linejoin="round" fill="none" d="M46,63 L60,63 M56.5,59.5 L60,63 L56.5,66.5"/>
    <path stroke="#16171E" stroke-width="3.2" stroke-linecap="round" stroke-linejoin="round" fill="none" d="M62,71 L48,71 M51.5,67.5 L48,71 L51.5,74.5"/>
  </g>
</svg>
