<svg xmlns="http://www.w3.org/2000/svg" viewBox="0 0 108 108" width="64" height="64">
  <!-- 与 Android 自适应启动图标保持完全一致的纯黑白极简风格：深灰方块底 + 白色挂锁 + 深色转换箭头 -->
  <rect x="0" y="0" width="108" height="108" rx="22" fill="#1C1B1F"/>
  <!-- 挂锁锁梁（白色描边） -->
  <path stroke="#FFFFFF" stroke-width="6" stroke-linecap="round" stroke-linejoin="round" fill="none" d="M45,38 L45,31 A9,9 0 0 1 63,31 L63,38"/>
  <!-- 锁体（白色圆角矩形） -->
  <path fill="#FFFFFF" d="M42,36 L66,36 A8,8 0 0 1 74,44 L74,62 A8,8 0 0 1 66,70 L42,70 A8,8 0 0 1 34,62 L34,44 A8,8 0 0 1 42,36 Z"/>
  <!-- 转换标记 ⇄（深色） -->
  <path stroke="#16171E" stroke-width="3.2" stroke-linecap="round" stroke-linejoin="round" fill="none" d="M46,47 L60,47 M56.5,43.5 L60,47 L56.5,50.5"/>
  <path stroke="#16171E" stroke-width="3.2" stroke-linecap="round" stroke-linejoin="round" fill="none" d="M62,55 L48,55 M51.5,51.5 L48,55 L51.5,58.5"/>
</svg>
